<svg viewBox="0 0 24 21" fill="none" xmlns="http://www.w3.org/2000/svg">
<path fill-rule="evenodd" clip-rule="evenodd" d="M2.19947 9.36247C1.70466 9.80915 1.5 10.237 1.5 10.6262C1.5 11.0153 1.70466 11.4432 2.19947 11.8898C2.69424 12.3365 3.43825 12.7616 4.40018 13.1289C6.32059 13.8621 9.0074 14.3262 12 14.3262C14.9926 14.3262 17.6794 13.8621 19.5998 13.1289C20.5618 12.7616 21.3058 12.3365 21.8005 11.8898C22.2953 11.4432 22.5 11.0153 22.5 10.6262C22.5 10.237 22.2953 9.80915 21.8005 9.36247C21.3058 8.91584 20.5618 8.4907 19.5998 8.12342C17.6794 7.39017 14.9926 6.92616 12 6.92616C9.0074 6.92616 6.32059 7.39017 4.40018 8.12342C3.43825 8.4907 2.69424 8.91584 2.19947 9.36247ZM4.04347 7.1892C6.10427 6.40235 8.91747 5.92616 12 5.92616C15.0825 5.92616 17.8957 6.40235 19.9565 7.1892C20.9852 7.58197 21.8521 8.06185 22.4706 8.62018C23.089 9.17846 23.5 9.85549 23.5 10.6262C23.5 11.3968 23.089 12.0738 22.4706 12.6321C21.8521 13.1905 20.9852 13.6703 19.9565 14.0631C17.8957 14.85 15.0825 15.3262 12 15.3262C8.91747 15.3262 6.10427 14.85 4.04347 14.0631C3.01479 13.6703 2.14789 13.1905 1.52939 12.6321C0.910952 12.0738 0.5 11.3968 0.5 10.6262C0.5 9.85549 0.910952 9.17846 1.52939 8.62018C2.14789 8.06185 3.01479 7.58197 4.04347 7.1892Z" fill="#61DAFB"/>
<path fill-rule="evenodd" clip-rule="evenodd" d="M8.19412 1.50681C7.55987 1.30163 7.087 1.33832 6.75 1.53289C6.413 1.72745 6.14478 2.11863 6.00535 2.77049C5.86594 3.42229 5.86976 4.27919 6.03265 5.29589C6.35785 7.32564 7.2994 9.88448 8.79571 12.4762C10.292 15.0678 12.0373 17.1627 13.6325 18.4592C14.4315 19.1086 15.1717 19.5403 15.8059 19.7455C16.4401 19.9507 16.913 19.914 17.25 19.7194C17.587 19.5249 17.8552 19.1337 17.9946 18.4818C18.1341 17.83 18.1302 16.9731 17.9673 15.9564C17.6422 13.9267 16.7006 11.3678 15.2043 8.77616C13.708 6.18448 11.9627 4.08965 10.3675 2.79315C9.56849 2.14373 8.8283 1.71197 8.19412 1.50681ZM10.9982 2.01712C12.7101 3.4084 14.5291 5.60661 16.0703 8.27616C17.6116 10.9457 18.6058 13.6201 18.9548 15.7982C19.1289 16.8855 19.1468 17.8762 18.9725 18.691C18.7983 19.5057 18.4174 20.2001 17.75 20.5854C17.0826 20.9708 16.2908 20.9534 15.4981 20.697C14.7053 20.4405 13.8563 19.9297 13.0018 19.2352C11.2899 17.8439 9.47095 15.6457 7.92968 12.9762C6.38842 10.3066 5.39421 7.63221 5.04525 5.45408C4.87105 4.36683 4.85319 3.37613 5.02747 2.56133C5.20174 1.74661 5.58258 1.0522 6.25 0.666864C6.91742 0.281529 7.70922 0.298912 8.50192 0.555359C9.2947 0.811828 10.1437 1.32264 10.9982 2.01712Z" fill="#61DAFB"/>
<path fill-rule="evenodd" clip-rule="evenodd" d="M17.9946 2.77049C17.8552 2.11863 17.587 1.72745 17.25 1.53289C16.913 1.33832 16.4401 1.30162 15.8059 1.50681C15.1717 1.71197 14.4315 2.14373 13.6325 2.79315C12.0373 4.08965 10.292 6.18448 8.7957 8.77616C7.2994 11.3678 6.35785 13.9267 6.03265 15.9564C5.86976 16.9731 5.86594 17.83 6.00535 18.4818C6.14478 19.1337 6.413 19.5249 6.75 19.7194C7.08699 19.914 7.55987 19.9507 8.19412 19.7455C8.8283 19.5403 9.56848 19.1086 10.3675 18.4592C11.9627 17.1627 13.708 15.0678 15.2043 12.4762C16.7006 9.88448 17.6422 7.32564 17.9673 5.29588C18.1302 4.27919 18.1341 3.42229 17.9946 2.77049ZM18.9548 5.45408C18.6058 7.63221 17.6116 10.3066 16.0703 12.9762C14.5291 15.6457 12.7101 17.8439 10.9982 19.2352C10.1437 19.9297 9.2947 20.4405 8.50192 20.697C7.70921 20.9534 6.91742 20.9708 6.25 20.5854C5.58258 20.2001 5.20174 19.5057 5.02747 18.691C4.85319 17.8762 4.87105 16.8855 5.04524 15.7982C5.39421 13.6201 6.38842 10.9457 7.92968 8.27616C9.47094 5.60661 11.2899 3.4084 13.0018 2.01712C13.8563 1.32264 14.7053 0.811828 15.4981 0.555358C16.2908 0.298911 17.0826 0.281529 17.75 0.666863C18.4174 1.0522 18.7983 1.74661 18.9725 2.56133C19.1468 3.37613 19.1289 4.36683 18.9548 5.45408Z" fill="#61DAFB"/>
<path d="M12.0002 12.676C13.1324 12.676 14.0502 11.7582 14.0502 10.626C14.0502 9.49386 13.1324 8.57605 12.0002 8.57605C10.868 8.57605 9.9502 9.49386 9.9502 10.626C9.9502 11.7582 10.868 12.676 12.0002 12.676Z" fill="#61DAFB"/>
</svg>
