<svg viewBox="0 0 19 19" fill="none" xmlns="http://www.w3.org/2000/svg">
<path d="M17.3028 1.09769C17.0298 1.76196 16.6767 2.35086 16.2861 2.8785C14.5633 1.11654 12.1534 0 9.49393 0C4.2645 0 0 4.24944 0 9.49764C0 12.2395 1.17203 14.7082 3.03128 16.4513L3.3843 16.7669C5.02703 18.1567 7.16399 19 9.48923 19C14.4786 19 18.5878 15.1039 18.9408 10.1855C19.2185 7.79693 18.4936 4.7394 17.3028 1.09769ZM4.40571 16.5314C4.13271 16.8847 3.62436 16.9224 3.27134 16.6491C2.91831 16.3759 2.88066 15.8671 3.15366 15.5138C3.42666 15.1604 3.93502 15.1227 4.28804 15.396C4.61752 15.6692 4.67872 16.178 4.40571 16.5314ZM17.2416 13.6906C14.9116 16.8046 9.90344 15.7493 6.71212 15.9048C6.71212 15.9048 6.14258 15.9425 5.57774 16.0226C5.57774 16.0226 5.79426 15.9236 6.06727 15.8247C8.31719 15.0426 9.37626 14.8825 10.746 14.1805C13.3113 12.8661 15.8719 9.9876 16.3849 7.01017C15.4059 9.86982 12.4311 12.3385 9.72928 13.3372C7.87003 14.025 4.52339 14.6893 4.52339 14.6893L4.38688 14.6092C2.11342 13.4974 2.03341 8.56013 6.18494 6.97248C8.00653 6.26581 9.72928 6.65683 11.7062 6.19043C13.7961 5.70047 16.2249 4.13166 17.2039 2.0729C18.3006 5.38483 19.6327 10.52 17.2416 13.6906Z" fill="#6CB52D"/>
</svg>
