<svg viewBox="0 0 94 112" fill="none" xmlns="http://www.w3.org/2000/svg">
<path d="M87.2535 14.8189C76.8535 -0.0662155 56.3135 -4.47821 41.4621 4.98409L15.3794 21.6078C11.8559 23.8245 8.83366 26.752 6.5059 30.2032C4.17814 33.6543 2.59606 37.5532 1.86081 41.6506C0.616612 48.5524 1.71019 55.6721 4.96841 61.8824C2.73579 65.2691 1.21305 69.0734 0.492215 73.0653C-0.250831 77.2452 -0.151746 81.5314 0.783656 85.6725C1.71906 89.8136 3.47195 93.7263 5.93951 97.181C16.3417 112.067 36.8818 116.478 51.7309 107.016L77.8136 90.3921C81.3374 88.1756 84.3598 85.2482 86.6876 81.797C89.0154 78.3458 90.5973 74.4468 91.3322 70.3493C92.5763 63.4475 91.4835 56.328 88.2269 50.117C90.459 46.7303 91.9811 42.9262 92.7012 38.9346C93.4447 34.7547 93.3459 30.4684 92.4105 26.3272C91.4751 22.186 89.7219 18.2734 87.2539 14.8189" fill="#FF3E00"/>
<path d="M38.9142 98.5816C34.8096 99.6489 30.4763 99.4308 26.4997 97.9567C22.523 96.4827 19.0944 93.8238 16.6771 90.339C15.1929 88.2616 14.1386 85.9087 13.5759 83.4183C13.0132 80.9279 12.9536 78.3502 13.4005 75.8365C13.5519 75.0112 13.7601 74.1974 14.0238 73.4008L14.515 71.903L15.8513 72.8845C18.9374 75.1521 22.388 76.8761 26.0543 77.9823L27.0237 78.2764L26.9344 79.2439C26.816 80.6203 27.1887 81.9942 27.9864 83.122C28.7139 84.1717 29.746 84.9728 30.9433 85.4172C32.1406 85.8616 33.4455 85.9279 34.6816 85.607C35.2485 85.4555 35.7888 85.2181 36.2837 84.9029L62.3671 68.2811C63.0053 67.8792 63.5529 67.3488 63.9748 66.7237C64.3967 66.0985 64.6838 65.3923 64.8177 64.6501C64.9516 63.8924 64.9332 63.1157 64.7636 62.3652C64.5941 61.6147 64.2768 60.9055 63.8302 60.2789C63.1023 59.229 62.0698 58.4277 60.8721 57.983C59.6744 57.5384 58.3691 57.4719 57.1324 57.7925C56.5663 57.944 56.0267 58.1813 55.5324 58.4961L45.5792 64.841C43.9425 65.8816 42.1564 66.666 40.2827 67.1669C36.1782 68.2341 31.8449 68.016 27.8683 66.5419C23.8917 65.0679 20.4632 62.4089 18.0459 58.9242C16.5617 56.8468 15.5073 54.4939 14.9446 52.0036C14.3819 49.5132 14.3223 46.9355 14.7693 44.4218C15.2114 41.958 16.1628 39.6135 17.5627 37.5383C18.9626 35.4632 20.7803 33.703 22.8993 32.3705L48.9804 15.7473C50.6178 14.705 52.4052 13.9196 54.2804 13.4186C58.385 12.3514 62.7182 12.5696 66.6948 14.0436C70.6714 15.5177 74.0998 18.1765 76.5171 21.6612C78.0013 23.7386 79.0557 26.0916 79.6183 28.5819C80.181 31.0723 80.2406 33.65 79.7937 36.1637C79.6417 36.9889 79.4335 37.8027 79.1704 38.5994L78.6792 40.0972L77.3436 39.1172C74.2578 36.8484 70.8069 35.1235 67.1399 34.0172L66.1705 33.723L66.2598 32.7555C66.3773 31.3793 66.0047 30.0058 65.2078 28.8775C64.4803 27.8278 63.4483 27.0267 62.2509 26.5823C61.0536 26.1379 59.7488 26.0717 58.5126 26.3925C57.9458 26.544 57.4055 26.7815 56.9105 27.0966L30.8271 43.7191C30.189 44.1207 29.6417 44.6509 29.22 45.2759C28.7984 45.901 28.5118 46.6071 28.3784 47.3491C28.2438 48.1067 28.2616 48.8836 28.4308 49.6343C28.6 50.3849 28.9173 51.0943 29.364 51.7208C30.092 52.7707 31.1244 53.5721 32.3221 54.0167C33.5199 54.4613 34.8251 54.5278 36.0618 54.2072C36.6285 54.0554 37.1688 53.818 37.6638 53.5031L47.6157 47.1606C49.2517 46.1186 51.0377 45.3336 52.9116 44.8328C57.0162 43.7656 61.3494 43.9838 65.326 45.4578C69.3027 46.9319 72.7311 49.5908 75.1484 53.0755C76.6327 55.1529 77.6871 57.5058 78.2497 59.9962C78.8124 62.4865 78.872 65.0642 78.425 67.5779C77.9827 70.0419 77.0312 72.3866 75.6313 74.462C74.2314 76.5374 72.4139 78.2979 70.295 79.6311L44.2138 96.2529C42.5764 97.2953 40.789 98.0806 38.9138 98.5816" fill="white"/>
</svg>
