<svg viewBox="0 0 330 103" fill="none" xmlns="http://www.w3.org/2000/svg">
<path d="M1.50012 72.7099V74.2099H3.00012H39.2876H40.7876V72.7099V54.1313V52.6313H39.2876H3.00012H1.50012V54.1313V72.7099ZM85.8209 38.1722L86.5246 28.3137H116.971H118.471V26.8137V5.32216V3.82216H116.971H63.236H61.8293L61.7391 5.22595L58.1568 60.9616L58.0292 62.9468L59.9729 62.5235C64.8077 61.4704 70.0729 60.9395 75.7741 60.9395C81.4697 60.9395 85.4946 61.7861 88.049 63.2892C90.4797 64.7196 91.6549 66.7802 91.6549 69.6674C91.6549 72.3413 90.6237 74.3083 88.5261 75.7446L88.5159 75.7517C86.4022 77.2249 83.0912 78.0717 78.3613 78.0717C71.2198 78.0717 64.4471 76.405 58.0243 73.0624L55.8318 71.9213V74.393V95.8845V96.9312L56.8142 97.2924C59.9915 98.4607 63.9888 99.4079 68.7777 100.15L68.7798 100.151C73.6239 100.895 78.2777 101.269 82.7397 101.269C90.7888 101.269 97.8544 99.8343 103.892 96.9109C109.918 93.9932 114.57 89.9014 117.786 84.6258C121.036 79.3244 122.65 73.3536 122.65 66.7544C122.65 58.0015 119.899 50.9282 114.278 45.7185C108.664 40.472 100.983 37.9368 91.4301 37.9368C89.6484 37.9368 87.7785 38.0156 85.8209 38.1722ZM142.328 89.2387L142.331 89.2429C148.745 97.3288 158.367 101.269 170.904 101.269C183.235 101.269 192.783 96.9648 199.304 88.2387C205.813 79.545 208.957 67.0459 208.957 50.9594C208.957 35.0882 206.031 22.9124 199.94 14.6744C193.786 6.3518 184.568 2.26855 172.563 2.26855C159.849 2.26855 149.935 6.58219 143.057 15.3353L143.054 15.3392C136.264 24.0377 132.984 36.6133 132.984 52.8367C132.984 68.9837 136.008 81.2124 142.328 89.2387ZM283.418 94.0991L283.424 94.1045C288.088 98.7021 294.241 100.945 301.725 100.945C309.778 100.945 316.339 98.5537 321.23 93.6415C326.113 88.7383 328.5 82.2693 328.5 74.393C328.5 66.7564 326.281 60.6101 321.676 56.1622C317.129 51.7264 310.945 49.5889 303.317 49.5889C295.353 49.5889 288.824 51.9575 283.894 56.8123C278.949 61.6371 276.542 68.1398 276.542 76.1408C276.542 83.464 278.802 89.5013 283.418 94.0991ZM306.585 68.8882L306.59 68.8953L306.595 68.9024C307.552 70.2869 308.119 72.3419 308.119 75.2345C308.119 78.2151 307.529 80.2999 306.543 81.6751L306.535 81.6855L306.528 81.6961C305.644 82.9739 304.384 83.6388 302.521 83.6388C300.705 83.6388 299.496 82.9972 298.659 81.7791C297.778 80.4316 297.254 78.432 297.254 75.6229C297.254 72.6488 297.842 70.5012 298.85 69.0247L298.855 69.018L298.86 69.0111C299.81 67.5876 301.102 66.895 302.919 66.895C304.483 66.895 305.661 67.5187 306.585 68.8882ZM252.767 99.6502H253.575L254.019 98.9755L315.184 6.14747L316.716 3.82216H313.931H293.035H292.227L291.782 4.49686L230.617 97.3249L229.085 99.6502H231.87H252.767ZM223.912 47.1672L223.918 47.1726C228.582 51.7702 234.735 54.013 242.219 54.013C250.14 54.013 256.627 51.6654 261.515 46.8492C266.454 41.9832 268.861 35.4625 268.861 27.4611C268.861 19.9039 266.638 13.7685 262.049 9.24188C257.503 4.71369 251.315 2.52749 243.678 2.52749C235.58 2.52749 229.013 4.94112 224.163 9.90579L224.163 9.90604C219.372 14.8125 217.036 21.3006 217.036 29.2089C217.036 36.5321 219.295 42.5694 223.912 47.1672ZM246.917 21.9121L246.929 21.9306L246.941 21.9488C247.87 23.3431 248.414 25.3683 248.414 28.1731C248.414 31.2589 247.839 33.391 246.889 34.7642C245.993 36.0604 244.765 36.7069 243.015 36.7069C241.198 36.7069 239.99 36.0653 239.153 34.8471C238.272 33.4997 237.748 31.5001 237.748 28.691C237.748 25.7169 238.336 23.5693 239.344 22.0928L239.349 22.0861L239.353 22.0793C240.303 20.6557 241.596 19.9631 243.413 19.9631C244.972 19.9631 246.084 20.5793 246.917 21.9121ZM176.168 30.9364C177.429 35.1184 178.095 41.7542 178.095 50.9594C178.095 60.4579 177.369 67.4312 175.987 71.9827C174.573 76.6385 172.724 78.0717 170.904 78.0717C169.878 78.0717 168.994 77.7005 168.186 76.8631C167.34 75.9864 166.553 74.5676 165.905 72.4705C164.644 68.1971 163.979 61.4947 163.979 52.2541C163.979 42.8423 164.705 35.9353 166.086 31.4286C167.497 26.8244 169.342 25.4007 171.17 25.4007C172.23 25.4007 173.125 25.7755 173.926 26.5983C174.768 27.4617 175.543 28.8611 176.168 30.9364Z" fill="#FF7C05" stroke="white" stroke-width="3"/>
</svg>
