<svg width="10" height="12" viewBox="0 0 10 12" fill="none" xmlns="http://www.w3.org/2000/svg">
<path fill-rule="evenodd" clip-rule="evenodd" d="M9.84308 6.21093C9.95108 6.06993 10.0001 5.91093 10.0001 5.75493C10.0001 5.36593 9.69408 4.99993 9.25108 4.99993H7.30482L9.843 1.711C9.951 1.57 10 1.411 10 1.255C10 0.866 9.694 0.5 9.251 0.5H0.75C0.305 0.5 0 0.867 0 1.255C0 1.412 0.0499999 1.571 0.159 1.712C0.848412 2.60256 1.81566 3.85143 2.70523 4.99993H0.750077C0.305077 4.99993 7.73668e-05 5.36693 7.73668e-05 5.75493C7.73668e-05 5.91193 0.0500773 6.07093 0.159077 6.21193C1.36208 7.76593 3.41108 10.4109 4.41708 11.7099C4.55908 11.8939 4.77708 11.9999 5.00908 11.9999C5.23908 11.9999 5.45808 11.8929 5.60008 11.7089L9.84308 6.21093ZM7.72508 6.49993H2.27908L5.00708 10.0219L7.72508 6.49993ZM7.725 2H2.279L4.60263 4.99993H5.40989L7.725 2Z" fill="black"/>
</svg>
